<?xml version="1.0" encoding="UTF-8" standalone="no"?>
<svg
   xmlns:dc="http://purl.org/dc/elements/1.1/"
   xmlns:cc="http://creativecommons.org/ns#"
   xmlns:rdf="http://www.w3.org/1999/02/22-rdf-syntax-ns#"
   xmlns:svg="http://www.w3.org/2000/svg"
   xmlns="http://www.w3.org/2000/svg"
   viewBox="0 0 1606.7333 641.21332"
   height="641.21332"
   width="1606.7333"
   xml:space="preserve"
   id="svg2"
   version="1.1"><metadata
     id="metadata8"><rdf:RDF><cc:Work
         rdf:about=""><dc:format>image/svg+xml</dc:format><dc:type
           rdf:resource="http://purl.org/dc/dcmitype/StillImage" /></cc:Work></rdf:RDF></metadata><defs
     id="defs6" /><g
     transform="matrix(1.3333333,0,0,-1.3333333,0,641.21333)"
     id="g10"><g
       transform="scale(0.1)"
       id="g12"><path
         id="path14"
         style="fill:#ffffff;fill-opacity:1;fill-rule:nonzero;stroke:none"
         d="m 4056.49,2359.14 h -113.94 c -324.69,0 -367.46,-185.15 -367.46,-358.92 v -848.79 h -222.14 v 848.79 c 0,356.06 193.69,578.23 575.37,578.23 h 128.17 z M 3036.86,3443.11 h -673.59 c -324.69,0 -367.41,-185.14 -367.41,-358.88 l -1.44,-505.78 H 3036.86 V 2359.11 H 1994.42 l 2.83,-626.63 c 0,-173.74 42.72,-358.88 367.46,-358.88 h 672.15 v -219.32 h -686.38 c -364.59,0 -578.25,205.07 -578.25,526.94 l 1.44,1403.01 c 0,356.03 193.69,578.2 575.37,578.2 h 687.82 z m 1167.68,-1722 v 276.27 c 0,353.2 199.39,578.22 578.21,578.22 h 19.61 C 4714.54,3823.67 3674.96,4809.09 2404.54,4809.09 1076.55,4809.09 0,3732.54 0,2404.55 0,1076.56 1076.55,0 2404.54,0 c 891.27,0 1668.7,485.301 2084.02,1205.69 -179.85,82.43 -284.02,254.17 -284.02,515.42" /><path
         id="path16"
         style="fill:#ffffff;fill-opacity:1;fill-rule:nonzero;stroke:none"
         d="m 4423.86,1997.38 v -262.04 c 0,-198.82 70.72,-292.05 165.68,-334.41 134.42,292.14 211.83,615.71 218.36,956.8 -6.38,-0.37 -11.31,-0.83 -13.76,-1.45 -324.73,-22.8 -370.28,-185.14 -370.28,-358.9" /><path
         id="path18"
         style="fill:#ffffff;fill-opacity:1;fill-rule:nonzero;stroke:none"
         d="m 4802.36,2575.6 c 3.99,-56.57 6.73,-113.48 6.73,-171.05 0,-15.71 -0.88,-31.19 -1.19,-46.82 23.39,1.39 71.1,1.41 131.51,1.41 105.37,0 256.35,0 447.16,-2.86 V 1367.9 h -603.82 c -66.43,0 -134.44,6.82 -193.21,33.03 -30.74,-66.8 -64.46,-131.9 -100.98,-195.24 82.91,-38 181.84,-57.1 294.19,-57.1 h 603.82 v -188 c 0,-173.738 -45.55,-358.891 -370.28,-358.891 h -589.6 V 382.391 h 603.87 c 381.68,0 575.33,222.168 575.33,578.199 V 2575.6 h -803.53" /><path
         id="path20"
         style="fill:#ffffff;fill-opacity:1;fill-rule:nonzero;stroke:none"
         d="m 7097.92,1718.26 v 284.81 c 0,173.77 -45.55,367.44 -367.41,367.44 h -319.04 c -321.85,0 -367.41,-193.67 -367.41,-367.44 v -284.81 c 0,-173.76 45.56,-364.58 367.41,-364.58 h 319.04 c 321.86,0 367.41,190.82 367.41,364.58 z m 219.32,284.81 v -316.16 c 0,-338.94 -205.04,-552.58 -575.33,-552.58 h -344.66 c -375.98,0 -572.5,222.2 -572.5,572.53 v 296.21 c 0,358.89 193.69,586.75 572.5,586.75 h 347.49 c 378.8,0 572.5,-227.86 572.5,-586.75" /><path
         id="path22"
         style="fill:#ffffff;fill-opacity:1;fill-rule:nonzero;stroke:none"
         d="m 7865.71,2578.45 h 173.77 V 2359.14 H 7865.71 V 1151.43 H 7643.52 V 2359.14 H 7469.8 v 219.31 h 173.72 l 0.02,755.01 h 222.19 l -0.02,-755.01" /><path
         id="path24"
         style="fill:#ffffff;fill-opacity:1;fill-rule:nonzero;stroke:none"
         d="m 8396.06,1986 h 951.31 c -8.52,156.64 -62.64,375.96 -367.41,375.96 h -216.48 c -301.9,0 -358.89,-219.32 -367.42,-375.96 z m 1173.5,-19.95 v -199.4 h -1173.5 v -34.17 c 0,-187.98 42.73,-350.33 367.42,-373.13 l 629.49,-2.82 v -219.35 l -643.72,2.85 c -375.99,25.65 -572.53,216.5 -572.53,581.08 v 225.02 c 0,356.03 190.85,635.17 572.53,635.17 h 244.94 c 373.15,0 575.37,-270.59 575.37,-615.25" /><path
         id="path26"
         style="fill:#ffffff;fill-opacity:1;fill-rule:nonzero;stroke:none"
         d="m 10473.8,2359.14 h -114 c -324.7,0 -367.43,-185.15 -367.43,-358.92 v -848.79 h -222.14 v 848.79 c 0,356.06 193.69,578.23 575.37,578.23 h 128.2 v -219.31" /><path
         id="path28"
         style="fill:#ffffff;fill-opacity:1;fill-rule:nonzero;stroke:none"
         d="m 11816.9,2359.14 h -592.4 c -185.1,0 -370.3,-34.2 -370.3,-370.29 v -264.91 c 0,-185.13 51.3,-370.26 370.3,-370.26 h 592.4 z m 233.6,-1221.96 h -843.1 c -367.4,0 -569.7,233.57 -569.7,586.76 v 281.98 c 0,384.53 216.5,569.68 586.8,569.68 h 826 V 1137.18" /></g></g></svg>